<svg width="185" height="215" viewBox="0 0 185 215" fill="none" xmlns="http://www.w3.org/2000/svg">
<rect width="24.8171" height="24.8171" transform="matrix(-0.86601 0.500028 -3.18907e-05 1 92.1172 12.4531)" fill="#EE5007"/>
<rect width="24.8171" height="24.8171" transform="matrix(-0.86601 -0.500028 3.18907e-05 1 70.624 24.8633)" fill="#FF7442"/>
<rect width="24.8171" height="24.8171" transform="matrix(-0.866041 0.499972 0.866041 0.499972 70.624 0.046875)" fill="#FB9E70"/>
<rect width="24.8171" height="24.8171" transform="matrix(3.19859e-05 1 0.86601 0.500028 49.1294 37.2734)" fill="#FF7442"/>
<rect width="24.8171" height="24.8171" transform="matrix(-0.866041 0.499973 0.866041 0.499972 49.1294 62.0859)" fill="#FB9E70"/>
<rect width="24.8171" height="24.8171" transform="matrix(-3.17834e-05 1 0.866009 -0.500028 27.6382 49.6836)" fill="#EE5007"/>
<rect width="24.8171" height="24.8171" transform="matrix(-0.86601 0.500028 -3.19781e-05 1 92.1196 86.9062)" fill="#EE5007"/>
<rect width="24.8171" height="24.8171" transform="matrix(-0.866009 -0.500028 3.18033e-05 1 70.6265 99.3164)" fill="#FF7442"/>
<rect width="24.8171" height="24.8171" transform="matrix(-0.866041 0.499972 0.866041 0.499973 70.6265 74.5)" fill="#FB9E70"/>
<rect width="24.8171" height="24.8171" transform="matrix(0.86601 -0.500028 3.18907e-05 -1 92.1143 111.734)" fill="#EE5007"/>
<rect width="24.8171" height="24.8171" transform="matrix(0.86601 0.500028 -3.18907e-05 -1 113.607 99.3242)" fill="#FF7442"/>
<rect width="24.8171" height="24.8171" transform="matrix(0.866041 -0.499972 -0.866041 -0.499972 113.607 124.141)" fill="#FB9E70"/>
<rect width="24.8171" height="24.8171" transform="matrix(-0.86601 0.500028 -3.19781e-05 1 156.594 49.6797)" fill="#EE5007"/>
<rect width="24.8171" height="24.8171" transform="matrix(-0.866009 -0.500028 3.18033e-05 1 135.101 62.0898)" fill="#FF7442"/>
<rect width="24.8171" height="24.8171" transform="matrix(-0.866041 0.499972 0.866041 0.499973 135.101 37.2734)" fill="#FB9E70"/>
<rect width="24.8171" height="24.8171" transform="matrix(0.86601 -0.500028 3.18907e-05 -1 92.1157 37.2812)" fill="#EE5007"/>
<rect width="24.8171" height="24.8171" transform="matrix(0.86601 0.500028 -3.18907e-05 -1 113.609 24.8711)" fill="#FF7442"/>
<rect width="24.8171" height="24.8171" transform="matrix(0.866041 -0.499972 -0.866041 -0.499972 113.609 49.6875)" fill="#FB9E70"/>
<path d="M26.5888 206.93L12.0655 189.147V206.93H4.06053V167.019H12.0655V184.916L26.5888 167.019H36.2519L19.7845 186.803L36.7093 206.93H26.5888ZM39.9162 190.977C39.9162 187.775 40.5452 184.935 41.8031 182.457C43.0991 179.98 44.8335 178.074 47.0063 176.74C49.2172 175.405 51.6759 174.738 54.3823 174.738C56.7457 174.738 58.8041 175.215 60.5575 176.168C62.3491 177.121 63.7786 178.322 64.8459 179.77V175.253H72.908V206.93H64.8459V202.298C63.8167 203.785 62.3872 205.024 60.5575 206.015C58.766 206.968 56.6885 207.444 54.3251 207.444C51.6568 207.444 49.2172 206.758 47.0063 205.386C44.8335 204.014 43.0991 202.089 41.8031 199.611C40.5452 197.095 39.9162 194.217 39.9162 190.977ZM64.8459 191.091C64.8459 189.147 64.4647 187.489 63.7023 186.117C62.94 184.706 61.9108 183.639 60.6147 182.915C59.3187 182.152 57.9273 181.771 56.4407 181.771C54.9541 181.771 53.5818 182.133 52.3239 182.858C51.066 183.582 50.0367 184.649 49.2362 186.06C48.4739 187.432 48.0927 189.071 48.0927 190.977C48.0927 192.883 48.4739 194.56 49.2362 196.009C50.0367 197.419 51.066 198.505 52.3239 199.268C53.6199 200.03 54.9922 200.411 56.4407 200.411C57.9273 200.411 59.3187 200.049 60.6147 199.325C61.9108 198.563 62.94 197.495 63.7023 196.123C64.4647 194.713 64.8459 193.035 64.8459 191.091ZM84.7859 171.479C83.3755 171.479 82.1938 171.041 81.2409 170.164C80.326 169.249 79.8686 168.125 79.8686 166.791C79.8686 165.456 80.326 164.351 81.2409 163.474C82.1938 162.559 83.3755 162.102 84.7859 162.102C86.1963 162.102 87.3589 162.559 88.2738 163.474C89.2268 164.351 89.7032 165.456 89.7032 166.791C89.7032 168.125 89.2268 169.249 88.2738 170.164C87.3589 171.041 86.1963 171.479 84.7859 171.479ZM88.7312 175.253V206.93H80.7263V175.253H88.7312ZM104.645 180.17C105.674 178.493 107.008 177.178 108.648 176.225C110.325 175.272 112.231 174.796 114.365 174.796V183.201H112.25C109.734 183.201 107.828 183.792 106.532 184.973C105.274 186.155 104.645 188.213 104.645 191.148V206.93H96.6401V175.253H104.645V180.17ZM133.823 207.444C130.773 207.444 128.029 206.777 125.589 205.443C123.15 204.071 121.225 202.146 119.814 199.668C118.442 197.19 117.756 194.331 117.756 191.091C117.756 187.851 118.461 184.992 119.871 182.515C121.32 180.037 123.283 178.131 125.761 176.797C128.239 175.424 131.002 174.738 134.052 174.738C137.101 174.738 139.865 175.424 142.343 176.797C144.82 178.131 146.764 180.037 148.175 182.515C149.623 184.992 150.347 187.851 150.347 191.091C150.347 194.331 149.604 197.19 148.118 199.668C146.669 202.146 144.687 204.071 142.171 205.443C139.693 206.777 136.911 207.444 133.823 207.444ZM133.823 200.469C135.271 200.469 136.625 200.125 137.883 199.439C139.179 198.715 140.208 197.648 140.97 196.237C141.733 194.827 142.114 193.112 142.114 191.091C142.114 188.08 141.313 185.774 139.712 184.173C138.149 182.534 136.224 181.714 133.937 181.714C131.65 181.714 129.725 182.534 128.162 184.173C126.638 185.774 125.875 188.08 125.875 191.091C125.875 194.103 126.618 196.428 128.105 198.067C129.63 199.668 131.536 200.469 133.823 200.469ZM168.341 207.444C165.749 207.444 163.424 206.987 161.365 206.072C159.307 205.119 157.668 203.842 156.448 202.241C155.266 200.64 154.618 198.868 154.504 196.923H162.566C162.719 198.143 163.309 199.153 164.339 199.954C165.406 200.754 166.721 201.155 168.284 201.155C169.809 201.155 170.99 200.85 171.829 200.24C172.706 199.63 173.144 198.848 173.144 197.896C173.144 196.866 172.61 196.104 171.543 195.608C170.514 195.075 168.856 194.503 166.569 193.893C164.205 193.321 162.261 192.73 160.736 192.121C159.25 191.511 157.954 190.577 156.848 189.319C155.781 188.061 155.247 186.365 155.247 184.23C155.247 182.476 155.743 180.875 156.734 179.427C157.763 177.978 159.212 176.835 161.08 175.996C162.985 175.158 165.215 174.738 167.769 174.738C171.543 174.738 174.555 175.691 176.804 177.597C179.053 179.465 180.291 182 180.52 185.202H172.858C172.744 183.944 172.21 182.953 171.257 182.229C170.342 181.466 169.104 181.085 167.541 181.085C166.092 181.085 164.968 181.352 164.167 181.886C163.405 182.419 163.024 183.163 163.024 184.116C163.024 185.183 163.557 186.002 164.625 186.574C165.692 187.108 167.35 187.661 169.599 188.232C171.886 188.804 173.773 189.395 175.26 190.005C176.746 190.615 178.023 191.568 179.091 192.864C180.196 194.122 180.768 195.799 180.806 197.896C180.806 199.725 180.291 201.364 179.262 202.813C178.271 204.261 176.823 205.405 174.917 206.244C173.049 207.044 170.857 207.444 168.341 207.444Z" fill="black"/>
</svg>
