<svg width="347" height="125" viewBox="0 0 347 125" fill="none" xmlns="http://www.w3.org/2000/svg">
<rect width="24.8171" height="24.8171" transform="matrix(-0.86601 0.500028 -3.18907e-05 1 64.6367 12.8008)" fill="#AEAEAE"/>
<rect width="24.8171" height="24.8171" transform="matrix(-0.86601 -0.500028 3.18907e-05 1 43.1436 25.2109)" fill="#D6D6D6"/>
<rect width="24.8171" height="24.8171" transform="matrix(-0.866041 0.499972 0.866041 0.499972 43.1436 0.394531)" fill="white"/>
<rect width="24.8171" height="24.8171" transform="matrix(3.19859e-05 1 0.86601 0.500028 21.6487 37.6211)" fill="#D6D6D6"/>
<rect width="24.8171" height="24.8171" transform="matrix(-0.866041 0.499973 0.866041 0.499972 21.6487 62.4336)" fill="white"/>
<rect width="24.8171" height="24.8171" transform="matrix(-3.17834e-05 1 0.866009 -0.500028 0.157593 50.0312)" fill="#AEAEAE"/>
<rect width="24.8171" height="24.8171" transform="matrix(-0.86601 0.500028 -3.19781e-05 1 64.6389 87.2539)" fill="#AEAEAE"/>
<rect width="24.8171" height="24.8171" transform="matrix(-0.866009 -0.500028 3.18033e-05 1 43.1458 99.6641)" fill="#D6D6D6"/>
<rect width="24.8171" height="24.8171" transform="matrix(-0.866041 0.499972 0.866041 0.499973 43.1458 74.8477)" fill="white"/>
<rect width="24.8171" height="24.8171" transform="matrix(0.86601 -0.500028 3.18907e-05 -1 64.6334 112.082)" fill="#AEAEAE"/>
<rect width="24.8171" height="24.8171" transform="matrix(0.86601 0.500028 -3.18907e-05 -1 86.1266 99.6719)" fill="#D6D6D6"/>
<rect width="24.8171" height="24.8171" transform="matrix(0.866041 -0.499972 -0.866041 -0.499972 86.1266 124.488)" fill="white"/>
<rect width="24.8171" height="24.8171" transform="matrix(-0.86601 0.500028 -3.19781e-05 1 129.114 50.0273)" fill="#AEAEAE"/>
<rect width="24.8171" height="24.8171" transform="matrix(-0.866009 -0.500028 3.18033e-05 1 107.62 62.4375)" fill="#D6D6D6"/>
<rect width="24.8171" height="24.8171" transform="matrix(-0.866041 0.499972 0.866041 0.499973 107.62 37.6211)" fill="white"/>
<rect width="24.8171" height="24.8171" transform="matrix(0.86601 -0.500028 3.18907e-05 -1 64.635 37.6289)" fill="#AEAEAE"/>
<rect width="24.8171" height="24.8171" transform="matrix(0.86601 0.500028 -3.18907e-05 -1 86.1282 25.2188)" fill="#D6D6D6"/>
<rect width="24.8171" height="24.8171" transform="matrix(0.866041 -0.499972 -0.866041 -0.499972 86.1282 50.0352)" fill="white"/>
<path d="M189.374 82.9414L174.851 65.159V82.9414H166.846V43.031H174.851V60.9278L189.374 43.031H199.037L182.57 62.8147L199.495 82.9414H189.374ZM202.702 66.9887C202.702 63.7867 203.331 60.9468 204.589 58.4691C205.885 55.9914 207.619 54.0855 209.792 52.7513C212.003 51.4171 214.461 50.7501 217.168 50.7501C219.531 50.7501 221.59 51.2265 223.343 52.1795C225.135 53.1325 226.564 54.3332 227.631 55.7817V51.2647H235.694V82.9414H227.631V78.31C226.602 79.7966 225.173 81.0355 223.343 82.0266C221.551 82.9795 219.474 83.456 217.111 83.456C214.442 83.456 212.003 82.7699 209.792 81.3976C207.619 80.0253 205.885 78.1003 204.589 75.6226C203.331 73.1068 202.702 70.2288 202.702 66.9887ZM227.631 67.103C227.631 65.159 227.25 63.5008 226.488 62.1285C225.725 60.7181 224.696 59.6508 223.4 58.9265C222.104 58.1642 220.713 57.783 219.226 57.783C217.74 57.783 216.367 58.1451 215.109 58.8694C213.851 59.5936 212.822 60.661 212.022 62.0714C211.259 63.4436 210.878 65.0827 210.878 66.9887C210.878 68.8946 211.259 70.5718 212.022 72.0204C212.822 73.4308 213.851 74.5171 215.109 75.2795C216.405 76.0419 217.778 76.4231 219.226 76.4231C220.713 76.4231 222.104 76.061 223.4 75.3367C224.696 74.5743 225.725 73.507 226.488 72.1347C227.25 70.7243 227.631 69.0471 227.631 67.103ZM247.571 47.4909C246.161 47.4909 244.979 47.0525 244.026 46.1758C243.112 45.261 242.654 44.1364 242.654 42.8023C242.654 41.4681 243.112 40.3627 244.026 39.4859C244.979 38.5711 246.161 38.1137 247.571 38.1137C248.982 38.1137 250.144 38.5711 251.059 39.4859C252.012 40.3627 252.489 41.4681 252.489 42.8023C252.489 44.1364 252.012 45.261 251.059 46.1758C250.144 47.0525 248.982 47.4909 247.571 47.4909ZM251.517 51.2647V82.9414H243.512V51.2647H251.517ZM267.431 56.182C268.46 54.5048 269.794 53.1897 271.433 52.2367C273.11 51.2837 275.016 50.8072 277.151 50.8072V59.2124H275.035C272.519 59.2124 270.614 59.8033 269.317 60.985C268.06 62.1666 267.431 64.2251 267.431 67.1602V82.9414H259.426V51.2647H267.431V56.182ZM296.608 83.456C293.559 83.456 290.814 82.7889 288.375 81.4548C285.935 80.0825 284.01 78.1575 282.6 75.6798C281.228 73.202 280.541 70.3431 280.541 67.103C280.541 63.8629 281.247 61.004 282.657 58.5263C284.106 56.0486 286.069 54.1426 288.546 52.8085C291.024 51.4362 293.788 50.7501 296.837 50.7501C299.887 50.7501 302.65 51.4362 305.128 52.8085C307.606 54.1426 309.55 56.0486 310.96 58.5263C312.409 61.004 313.133 63.8629 313.133 67.103C313.133 70.3431 312.39 73.202 310.903 75.6798C309.455 78.1575 307.472 80.0825 304.957 81.4548C302.479 82.7889 299.696 83.456 296.608 83.456ZM296.608 76.4803C298.057 76.4803 299.41 76.1372 300.668 75.4511C301.964 74.7268 302.993 73.6595 303.756 72.2491C304.518 70.8387 304.899 69.1233 304.899 67.103C304.899 64.0916 304.099 61.7855 302.498 60.1845C300.935 58.5454 299.01 57.7258 296.723 57.7258C294.436 57.7258 292.511 58.5454 290.948 60.1845C289.423 61.7855 288.661 64.0916 288.661 67.103C288.661 70.1144 289.404 72.4397 290.891 74.0788C292.415 75.6798 294.321 76.4803 296.608 76.4803ZM331.127 83.456C328.535 83.456 326.209 82.9986 324.151 82.0837C322.093 81.1308 320.453 79.8538 319.234 78.2528C318.052 76.6518 317.404 74.8793 317.29 72.9352H325.352C325.504 74.155 326.095 75.1652 327.124 75.9657C328.192 76.7662 329.507 77.1664 331.07 77.1664C332.594 77.1664 333.776 76.8615 334.615 76.2516C335.491 75.6417 335.93 74.8602 335.93 73.9072C335.93 72.878 335.396 72.1157 334.329 71.6201C333.299 71.0865 331.641 70.5147 329.354 69.9048C326.991 69.333 325.047 68.7421 323.522 68.1322C322.035 67.5223 320.739 66.5884 319.634 65.3305C318.567 64.0726 318.033 62.3763 318.033 60.2416C318.033 58.4882 318.528 56.8872 319.52 55.4387C320.549 53.9902 321.997 52.8466 323.865 52.008C325.771 51.1694 328.001 50.7501 330.555 50.7501C334.329 50.7501 337.34 51.703 339.589 53.609C341.838 55.4768 343.077 58.0117 343.306 61.2137H335.644C335.529 59.9558 334.996 58.9647 334.043 58.2404C333.128 57.478 331.889 57.0968 330.326 57.0968C328.878 57.0968 327.753 57.3637 326.953 57.8973C326.19 58.431 325.809 59.1743 325.809 60.1273C325.809 61.1946 326.343 62.0142 327.41 62.586C328.477 63.1196 330.136 63.6723 332.385 64.2441C334.672 64.8159 336.559 65.4067 338.045 66.0166C339.532 66.6266 340.809 67.5795 341.876 68.8756C342.982 70.1335 343.553 71.8107 343.592 73.9072C343.592 75.7369 343.077 77.3761 342.048 78.8246C341.057 80.2731 339.608 81.4167 337.702 82.2553C335.834 83.0558 333.643 83.456 331.127 83.456Z" fill="white"/>
</svg>
